0
SECTION
2
ENTITIES
0
LINE
8
FFab
62
5
10
125.4
20
-116.2
11
122.6
21
-116.2
0
LINE
8
FFab
62
5
10
122.6
20
-116.2
11
122.2
21
-116.6
0
LINE
8
FFab
62
5
10
122.2
20
-116.6
11
122.2
21
-117.8
0
LINE
8
FFab
62
5
10
122.2
20
-117.8
11
125.4
21
-117.8
0
LINE
8
FFab
62
5
10
125.4
20
-117.8
11
125.4
21
-116.2
0
LINE
8
FCrtYd
62
7
10
121.52
20
-118.12
11
121.52
21
-115.88
0
LINE
8
FCrtYd
62
7
10
121.52
20
-115.88
11
126.08
21
-115.88
0
LINE
8
FCrtYd
62
7
10
126.08
20
-115.88
11
126.08
21
-118.12
0
LINE
8
FCrtYd
62
7
10
126.08
20
-118.12
11
121.52
21
-118.12
0
LINE
8
FCrtYd
62
7
10
126.8
20
-97.4
11
126.8
21
-87.6
0
LINE
8
FCrtYd
62
7
10
139.8
20
-97.4
11
126.8
21
-97.4
0
LINE
8
FCrtYd
62
7
10
139.8
20
-87.6
11
139.8
21
-97.4
0
LINE
8
FCrtYd
62
7
10
126.8
20
-87.6
11
139.8
21
-87.6
0
LINE
8
FCrtYd
62
7
10
126.8
20
-111.4
11
126.8
21
-101.6
0
LINE
8
FCrtYd
62
7
10
139.8
20
-111.4
11
126.8
21
-111.4
0
LINE
8
FCrtYd
62
7
10
139.8
20
-101.6
11
139.8
21
-111.4
0
LINE
8
FCrtYd
62
7
10
126.8
20
-101.6
11
139.8
21
-101.6
0
CIRCLE
8
Cmts
62
1
10
165.5
20
-104.1
40
2.1
0
CIRCLE
8
FCrtYd
62
7
10
165.5
20
-104.1
40
2.35
0
CIRCLE
8
Cmts
62
1
10
165.5
20
-122.9
40
2.1
0
CIRCLE
8
FCrtYd
62
7
10
165.5
20
-122.9
40
2.35
0
CIRCLE
8
Cmts
62
1
10
165.5
20
-118.1
40
2.1
0
CIRCLE
8
FCrtYd
62
7
10
165.5
20
-118.1
40
2.35
0
CIRCLE
8
Cmts
62
1
10
165.5
20
-94.9
40
2.1
0
CIRCLE
8
FCrtYd
62
7
10
165.5
20
-94.9
40
2.35
0
CIRCLE
8
Cmts
62
1
10
165.5
20
-108.9
40
2.1
0
CIRCLE
8
FCrtYd
62
7
10
165.5
20
-108.9
40
2.35
0
CIRCLE
8
Cmts
62
1
10
108.1
20
-122.9
40
2.1
0
CIRCLE
8
FCrtYd
62
7
10
108.1
20
-122.9
40
2.35
0
CIRCLE
8
Cmts
62
1
10
165.5
20
-90.1
40
2.1
0
CIRCLE
8
FCrtYd
62
7
10
165.5
20
-90.1
40
2.35
0
CIRCLE
8
Cmts
62
1
10
108.1
20
-118.1
40
2.1
0
CIRCLE
8
FCrtYd
62
7
10
108.1
20
-118.1
40
2.35
0
CIRCLE
8
Cmts
62
1
10
108.1
20
-108.9
40
2.1
0
CIRCLE
8
FCrtYd
62
7
10
108.1
20
-108.9
40
2.35
0
CIRCLE
8
Cmts
62
1
10
108.1
20
-104.1
40
2.1
0
CIRCLE
8
FCrtYd
62
7
10
108.1
20
-104.1
40
2.35
0
CIRCLE
8
Cmts
62
1
10
108.1
20
-94.9
40
2.1
0
CIRCLE
8
FCrtYd
62
7
10
108.1
20
-94.9
40
2.35
0
CIRCLE
8
Cmts
62
1
10
108.1
20
-90.1
40
2.1
0
CIRCLE
8
FCrtYd
62
7
10
108.1
20
-90.1
40
2.35
0
LINE
8
FCrtYd
62
7
10
134.25
20
-122.65
11
137.55
21
-122.65
0
LINE
8
FCrtYd
62
7
10
134.25
20
-122.65
11
134.25
21
-125.15
0
LINE
8
FCrtYd
62
7
10
137.55
20
-125.15
11
137.55
21
-122.65
0
LINE
8
FCrtYd
62
7
10
137.55
20
-125.15
11
134.25
21
-125.15
0
LINE
8
FCrtYd
62
7
10
129.05
20
-122.65
11
132.35
21
-122.65
0
LINE
8
FCrtYd
62
7
10
129.05
20
-122.65
11
129.05
21
-125.15
0
LINE
8
FCrtYd
62
7
10
132.35
20
-125.15
11
132.35
21
-122.65
0
LINE
8
FCrtYd
62
7
10
132.35
20
-125.15
11
129.05
21
-125.15
0
CIRCLE
8
FFab
62
5
10
147.055
20
-110.15
40
1.095
0
LINE
8
FFab
62
5
10
138.795
20
-106.59
11
138.795
21
-111.42
0
LINE
8
FFab
62
5
10
138.795
20
-111.42
11
148.325
21
-111.42
0
LINE
8
FFab
62
5
10
148.325
20
-111.42
11
148.325
21
-106.59
0
LINE
8
FFab
62
5
10
148.325
20
-106.59
11
138.795
21
-106.59
0
LINE
8
FFab
62
5
10
147.055
20
-111.235
11
147.056
21
-109.066
0
LINE
8
FFab
62
5
10
147.055
20
-111.235
11
147.056
21
-109.066
0
LINE
8
FCrtYd
62
7
10
138.5
20
-106.3
11
138.5
21
-111.7
0
LINE
8
FCrtYd
62
7
10
138.5
20
-111.7
11
148.6
21
-111.7
0
LINE
8
FCrtYd
62
7
10
148.6
20
-111.7
11
148.6
21
-106.3
0
LINE
8
FCrtYd
62
7
10
148.6
20
-106.3
11
138.5
21
-106.3
0
CIRCLE
8
FFab
62
5
10
147.055
20
-96.23
40
1.095
0
LINE
8
FFab
62
5
10
138.795
20
-92.67
11
138.795
21
-97.5
0
LINE
8
FFab
62
5
10
138.795
20
-97.5
11
148.325
21
-97.5
0
LINE
8
FFab
62
5
10
148.325
20
-97.5
11
148.325
21
-92.67
0
LINE
8
FFab
62
5
10
148.325
20
-92.67
11
138.795
21
-92.67
0
LINE
8
FFab
62
5
10
147.055
20
-97.315
11
147.056
21
-95.146
0
LINE
8
FFab
62
5
10
147.055
20
-97.315
11
147.056
21
-95.146
0
LINE
8
FCrtYd
62
7
10
138.5
20
-92.38
11
138.5
21
-97.78
0
LINE
8
FCrtYd
62
7
10
138.5
20
-97.78
11
148.6
21
-97.78
0
LINE
8
FCrtYd
62
7
10
148.6
20
-97.78
11
148.6
21
-92.38
0
LINE
8
FCrtYd
62
7
10
148.6
20
-92.38
11
138.5
21
-92.38
0
LINE
8
FFab
62
5
10
126.1
20
-118.6
11
126.1
21
-117.0
0
LINE
8
FFab
62
5
10
126.1
20
-117.0
11
129.3
21
-117.0
0
LINE
8
FFab
62
5
10
129.3
20
-117.0
11
129.3
21
-118.6
0
LINE
8
FFab
62
5
10
129.3
20
-118.6
11
126.1
21
-118.6
0
LINE
8
FCrtYd
62
7
10
125.42
20
-118.92
11
125.42
21
-116.68
0
LINE
8
FCrtYd
62
7
10
125.42
20
-116.68
11
129.98
21
-116.68
0
LINE
8
FCrtYd
62
7
10
129.98
20
-116.68
11
129.98
21
-118.92
0
LINE
8
FCrtYd
62
7
10
129.98
20
-118.92
11
125.42
21
-118.92
0
LINE
8
FCrtYd
62
7
10
160.55
20
-118.65
11
155.05
21
-118.65
0
LINE
8
FCrtYd
62
7
10
160.55
20
-129.15
11
160.55
21
-118.65
0
LINE
8
FCrtYd
62
7
10
155.05
20
-129.15
11
160.55
21
-129.15
0
LINE
8
FCrtYd
62
7
10
155.05
20
-118.65
11
155.05
21
-129.15
0
LINE
8
FCrtYd
62
7
10
160.55
20
-111.65
11
155.05
21
-111.65
0
LINE
8
FCrtYd
62
7
10
160.55
20
-122.15
11
160.55
21
-111.65
0
LINE
8
FCrtYd
62
7
10
155.05
20
-122.15
11
160.55
21
-122.15
0
LINE
8
FCrtYd
62
7
10
155.05
20
-111.65
11
155.05
21
-122.15
0
LINE
8
FCrtYd
62
7
10
160.55
20
-104.75
11
155.05
21
-104.75
0
LINE
8
FCrtYd
62
7
10
160.55
20
-115.25
11
160.55
21
-104.75
0
LINE
8
FCrtYd
62
7
10
155.05
20
-115.25
11
160.55
21
-115.25
0
LINE
8
FCrtYd
62
7
10
155.05
20
-104.75
11
155.05
21
-115.25
0
LINE
8
FCrtYd
62
7
10
160.55
20
-97.75
11
155.05
21
-97.75
0
LINE
8
FCrtYd
62
7
10
160.55
20
-108.25
11
160.55
21
-97.75
0
LINE
8
FCrtYd
62
7
10
155.05
20
-108.25
11
160.55
21
-108.25
0
LINE
8
FCrtYd
62
7
10
155.05
20
-97.75
11
155.05
21
-108.25
0
LINE
8
FCrtYd
62
7
10
160.55
20
-90.75
11
155.05
21
-90.75
0
LINE
8
FCrtYd
62
7
10
160.55
20
-101.25
11
160.55
21
-90.75
0
LINE
8
FCrtYd
62
7
10
155.05
20
-101.25
11
160.55
21
-101.25
0
LINE
8
FCrtYd
62
7
10
155.05
20
-90.75
11
155.05
21
-101.25
0
LINE
8
FCrtYd
62
7
10
160.55
20
-83.75
11
155.05
21
-83.75
0
LINE
8
FCrtYd
62
7
10
160.55
20
-94.25
11
160.55
21
-83.75
0
LINE
8
FCrtYd
62
7
10
155.05
20
-94.25
11
160.55
21
-94.25
0
LINE
8
FCrtYd
62
7
10
155.05
20
-83.75
11
155.05
21
-94.25
0
LINE
8
FCrtYd
62
7
10
118.55
20
-118.75
11
113.05
21
-118.75
0
LINE
8
FCrtYd
62
7
10
118.55
20
-129.25
11
118.55
21
-118.75
0
LINE
8
FCrtYd
62
7
10
113.05
20
-129.25
11
118.55
21
-129.25
0
LINE
8
FCrtYd
62
7
10
113.05
20
-118.75
11
113.05
21
-129.25
0
LINE
8
FCrtYd
62
7
10
118.55
20
-111.75
11
113.05
21
-111.75
0
LINE
8
FCrtYd
62
7
10
118.55
20
-122.25
11
118.55
21
-111.75
0
LINE
8
FCrtYd
62
7
10
113.05
20
-122.25
11
118.55
21
-122.25
0
LINE
8
FCrtYd
62
7
10
113.05
20
-111.75
11
113.05
21
-122.25
0
LINE
8
FCrtYd
62
7
10
118.55
20
-104.75
11
113.05
21
-104.75
0
LINE
8
FCrtYd
62
7
10
118.55
20
-115.25
11
118.55
21
-104.75
0
LINE
8
FCrtYd
62
7
10
113.05
20
-115.25
11
118.55
21
-115.25
0
LINE
8
FCrtYd
62
7
10
113.05
20
-104.75
11
113.05
21
-115.25
0
LINE
8
FCrtYd
62
7
10
118.55
20
-97.75
11
113.05
21
-97.75
0
LINE
8
FCrtYd
62
7
10
118.55
20
-108.25
11
118.55
21
-97.75
0
LINE
8
FCrtYd
62
7
10
113.05
20
-108.25
11
118.55
21
-108.25
0
LINE
8
FCrtYd
62
7
10
113.05
20
-97.75
11
113.05
21
-108.25
0
LINE
8
FCrtYd
62
7
10
118.55
20
-90.75
11
113.05
21
-90.75
0
LINE
8
FCrtYd
62
7
10
118.55
20
-101.25
11
118.55
21
-90.75
0
LINE
8
FCrtYd
62
7
10
113.05
20
-101.25
11
118.55
21
-101.25
0
LINE
8
FCrtYd
62
7
10
113.05
20
-90.75
11
113.05
21
-101.25
0
LINE
8
FCrtYd
62
7
10
118.55
20
-83.75
11
113.05
21
-83.75
0
LINE
8
FCrtYd
62
7
10
118.55
20
-94.25
11
118.55
21
-83.75
0
LINE
8
FCrtYd
62
7
10
113.05
20
-94.25
11
118.55
21
-94.25
0
LINE
8
FCrtYd
62
7
10
113.05
20
-83.75
11
113.05
21
-94.25
0
TEXT
8
Eco1
62
3
10
136.75
20
-130.0
1
62.300 mm 
40
1.0
7
SIMPLEX
72
1
73
2
11
136.75
21
-130.0
0
LINE
8
Eco1
62
3
10
167.9
20
-127.5
11
167.9
21
-129.286421
0
LINE
8
Eco1
62
3
10
105.6
20
-127.5
11
105.6
21
-129.286421
0
LINE
8
Eco1
62
3
10
105.6
20
-128.7
11
167.9
21
-128.7
0
LINE
8
Eco1
62
3
10
167.9
20
-128.7
11
166.773496
21
-129.286421
0
LINE
8
Eco1
62
3
10
167.9
20
-128.7
11
166.773496
21
-128.113579
0
LINE
8
Eco1
62
3
10
105.6
20
-128.7
11
106.726504
21
-129.286421
0
LINE
8
Eco1
62
3
10
105.6
20
-128.7
11
106.726504
21
-128.113579
0
TEXT
8
Eco1
62
3
10
102.3
20
-105.25
1
44.500 mm 
40
1.0
50
90.0
7
SIMPLEX
72
1
73
2
11
102.3
21
-105.25
0
LINE
8
Eco1
62
3
10
105.6
20
-83.0
11
103.013579
21
-83.0
0
LINE
8
Eco1
62
3
10
105.6
20
-127.5
11
103.013579
21
-127.5
0
LINE
8
Eco1
62
3
10
103.6
20
-127.5
11
103.6
21
-83.0
0
LINE
8
Eco1
62
3
10
103.6
20
-83.0
11
104.186421
21
-84.126504
0
LINE
8
Eco1
62
3
10
103.6
20
-83.0
11
103.013579
21
-84.126504
0
LINE
8
Eco1
62
3
10
103.6
20
-127.5
11
104.186421
21
-126.373496
0
LINE
8
Eco1
62
3
10
103.6
20
-127.5
11
103.013579
21
-126.373496
0
LINE
8
Edge
62
2
10
105.6
20
-127.5
11
105.6
21
-83.0
0
LINE
8
Edge
62
2
10
167.9
20
-127.5
11
105.6
21
-127.5
0
LINE
8
Edge
62
2
10
167.9
20
-83.0
11
167.9
21
-127.5
0
LINE
8
Edge
62
2
10
105.6
20
-83.0
11
167.9
21
-83.0
0
ENDSEC
0
EOF
